<svg width="67" height="61" viewBox="0 0 67 61" fill="none" xmlns="http://www.w3.org/2000/svg">
<g id="Icon/Solid/shopping-bag">
<path id="Icon" fill-rule="evenodd" clip-rule="evenodd" d="M33.2232 6.1001C25.8837 6.1001 19.9339 11.5622 19.9339 18.3001V21.3501H16.6116C14.9187 21.3501 13.4965 22.5187 13.3096 24.0633L9.98726 51.5133C9.8829 52.3755 10.1835 53.2378 10.8137 53.8842C11.444 54.5306 12.3442 54.9001 13.2893 54.9001H53.1571C54.1021 54.9001 55.0024 54.5306 55.6327 53.8842C56.2629 53.2378 56.5635 52.3755 56.4591 51.5133L53.1368 24.0633C52.9498 22.5187 51.5277 21.3501 49.8348 21.3501H46.5125V18.3001C46.5125 11.5622 40.5626 6.1001 33.2232 6.1001ZM39.8678 21.3501V18.3001C39.8678 14.9312 36.8929 12.2001 33.2232 12.2001C29.5534 12.2001 26.5785 14.9312 26.5785 18.3001V21.3501H39.8678ZM19.9339 30.5001C19.9339 28.8156 21.4213 27.4501 23.2562 27.4501C25.0911 27.4501 26.5785 28.8156 26.5785 30.5001C26.5785 32.1846 25.0911 33.5501 23.2562 33.5501C21.4213 33.5501 19.9339 32.1846 19.9339 30.5001ZM43.1901 27.4501C41.3553 27.4501 39.8678 28.8156 39.8678 30.5001C39.8678 32.1846 41.3553 33.5501 43.1901 33.5501C45.025 33.5501 46.5125 32.1846 46.5125 30.5001C46.5125 28.8156 45.025 27.4501 43.1901 27.4501Z" fill="white"/>
</g>
</svg>
