<svg width="61" height="61" viewBox="0 0 61 61" fill="none" xmlns="http://www.w3.org/2000/svg">
<g id="Icon/Solid/user-circle">
<path id="Icon" d="M16.1795 42.2344L16.0455 42.5263L16.2552 42.7695C19.702 46.7678 24.8055 49.3001 30.4999 49.3001C36.1942 49.3001 41.2976 46.7679 44.7445 42.7698L44.9542 42.5265L44.8202 42.2346C42.3316 36.8152 36.8559 33.0501 30.4998 33.0501C24.1437 33.0501 18.6681 36.8151 16.1795 42.2344ZM54.4 30.5001C54.4 43.6997 43.6996 54.4001 30.5 54.4001C17.3004 54.4001 6.59998 43.6997 6.59998 30.5001C6.59998 17.3005 17.3004 6.6001 30.5 6.6001C43.6996 6.6001 54.4 17.3005 54.4 30.5001ZM30.5 27.9501C34.1451 27.9501 37.1 24.9952 37.1 21.3501C37.1 17.705 34.1451 14.7501 30.5 14.7501C26.8549 14.7501 23.9 17.705 23.9 21.3501C23.9 24.9952 26.8549 27.9501 30.5 27.9501Z" fill="#31628D" stroke="#31628D"/>
</g>
</svg>
